# xmcd CD database file
#
# Track frame offsets:
#	150
#	21082
#	42586
#	65246
#	84320
#	106173
#	129826
#	156657
#	180148
#	199996
#	226294
#	244993
#
# Disc length: 3482 seconds
#
# Revision: 0
# Processed by: cddbd v1.4PL0 Copyright (c) Steve Scherf et al.
# Submitted via: CDex 1.50Beta7
#
DISCID=9e0d980c
DTITLE=Nan Mason - Something Cool
DYEAR=1999
DGENRE=Jazz
TTITLE0=Something Cool
TTITLE1=The Best is Yet to Come
TTITLE2=Speak Low
TTITLE3=Don't Explain
TTITLE4=And I Love You So
TTITLE5=Fever
TTITLE6=The Promise of You
TTITLE7=Someone to Watch Over Me
TTITLE8=You'd Be So Nice to Come Home to
TTITLE9=Love For Sale
TTITLE10=This is My Life
TTITLE11=What a Wonderful World
EXTD=YEAR: 1999
EXTT0=
EXTT1=
EXTT2=
EXTT3=
EXTT4=
EXTT5=
EXTT6=
EXTT7=
EXTT8=
EXTT9=
EXTT10=
EXTT11=
PLAYORDER=
